<svg width="481" height="300" viewBox="0 0 481 300" fill="none" xmlns="http://www.w3.org/2000/svg">
<g clip-path="url(#clip0_125_2)">
<path d="M643.162 310.24C614.46 327.015 583.866 342.027 550.712 347.988C517.624 353.9 481.49 349.714 455.649 331.132C424.793 308.932 411.294 269.014 375.869 253.258C352.935 243.069 325.691 245.258 299.86 246C273.964 246.74 245.81 244.983 227.223 229.166C193.905 200.804 208.066 142.221 171.784 117.007C147.828 100.395 113.565 106.474 83.2376 103.614C44.8759 99.9731 9.39908 79.8871 -10.7493 50.3638C-30.8976 20.8405 -35.2816 -17.5388 -22.4616 -51.329" stroke="#FDCFA5" stroke-miterlimit="10"/>
<path d="M639.516 314.5C610.952 331.022 580.371 345.622 547.424 351.229C527.549 354.641 506.561 354.41 487.412 349.653C474.904 346.56 463.176 341.482 453.014 334.292C422.212 312.403 408.1 273.341 373.536 257.098C361.246 251.332 347.868 248.982 333.92 248.16C322.112 247.459 309.944 247.829 297.978 248C281.198 248.268 263.34 247.728 247.756 243.296C239.126 240.846 231.185 237.233 224.47 231.961C211.226 221.629 204.754 207.038 199.678 191.515C192.293 169.164 187.64 144.792 170.368 128.504C168.541 126.743 166.515 125.13 164.356 123.564C140.607 106.597 107.823 111.179 79.2833 107.349C51.3279 103.537 25.3778 90.2075 6.01451 70.346C0.419641 64.5956 -4.57208 58.2984 -8.96407 51.5573C-16.8167 39.3941 -22.4139 25.8628 -25.6564 11.8943C-30.5587 -8.87945 -30.2954 -30.5642 -24.2462 -50.3053" stroke="#FDCFA5" stroke-miterlimit="10"/>
<path d="M635.928 318.812C607.439 335.028 576.938 349.218 544.128 354.572C524.324 357.833 503.534 357.505 484.515 352.752C472.072 349.661 460.406 344.688 450.241 337.55C419.493 316.023 404.899 277.769 371.129 261.089C358.976 255.122 345.94 252.268 332.135 251.038C320.404 249.979 308.18 250.09 296.152 250.155C279.249 250.213 261.261 249.669 245.472 245.539C236.772 243.241 228.758 239.884 221.774 234.861C208.185 225.135 200.97 211.396 195.154 196.621C186.692 175.369 180.584 151.772 163.059 135.27C161.167 133.506 159.207 131.844 157.049 130.278C133.44 113.007 102.265 116.097 75.5163 111.192C49.3481 106.409 25.4332 92.4768 7.32063 72.1414C2.05554 66.2474 -2.73629 59.8022 -6.92836 52.9131C-14.5127 40.5012 -20.168 26.7619 -23.7967 12.6775C-29.2133 -8.26789 -30.2538 -29.8412 -25.845 -49.1214" stroke="#FDCFA5" stroke-miterlimit="10"/>
<path d="M632.343 323.073C603.993 339.035 573.504 352.814 540.835 357.864C521.168 360.922 500.574 360.549 481.685 355.801C469.371 352.714 457.769 347.795 447.601 340.76C416.842 319.542 401.701 282.094 368.725 265.028C356.775 258.81 344.014 255.501 330.286 253.913C318.632 252.496 306.414 252.401 294.263 252.256C277.237 252.104 259.054 251.554 243.125 247.728C234.291 245.58 226.14 242.425 219.014 237.757C205.015 228.637 197.185 215.805 190.566 201.724C180.964 181.516 173.396 158.799 155.686 142.033C153.794 140.27 151.836 138.556 149.679 136.939C126.212 119.311 96.5819 120.906 71.6849 115.032C47.2391 109.275 25.4891 94.7454 8.49919 73.8804C3.56388 67.8427 -0.961416 61.2002 -5.02021 54.2125C-12.3346 41.5004 -18.0497 27.6045 -21.9996 13.4064C-27.9955 -7.71275 -30.2749 -29.1725 -27.5081 -47.9403" stroke="#FFC087" stroke-miterlimit="10"/>
<path d="M628.756 327.335C600.48 342.991 570.071 356.36 537.605 361.159C518.072 364.067 497.612 363.596 478.853 358.852C466.604 355.767 455.065 350.902 444.957 344.023C414.188 323.114 398.565 286.475 366.383 268.971C354.57 262.551 342.149 258.79 328.566 256.743C316.987 255.02 304.715 254.613 292.439 254.31C275.29 253.948 256.976 253.444 240.778 249.867C231.872 247.924 223.586 244.918 216.253 240.604C201.845 232.089 193.402 220.061 185.975 206.829C175.298 187.719 166.274 165.779 148.245 148.795C146.355 146.981 144.332 145.265 142.24 143.65C118.978 125.72 90.8278 125.818 67.7199 118.921C45.0614 112.193 25.4113 97.0629 9.6089 75.6705C5.00507 69.4376 0.74298 62.7008 -3.18084 55.563C-10.227 42.602 -15.9985 28.4467 -20.3363 14.1842C-26.9115 -7.10871 -30.3647 -28.4528 -29.3032 -46.7617" stroke="#F29137" stroke-miterlimit="10"/>
<path d="M625.169 331.648C596.967 347.049 566.636 360.008 534.31 364.503C514.912 367.261 494.652 366.641 475.956 361.951C463.772 358.868 452.296 354.057 442.25 347.283C411.535 326.685 395.301 290.85 363.977 272.963C352.302 266.289 340.221 262.076 326.715 259.671C315.213 257.589 302.884 256.923 290.547 256.515C273.34 255.945 254.766 255.432 238.428 252.16C229.387 250.366 221.028 247.616 213.555 243.607C198.736 235.696 189.616 224.522 181.449 212.039C169.696 193.975 159.15 172.86 140.933 155.664C138.979 153.848 137.022 152.082 134.932 150.416C111.81 132.182 85.2059 130.734 63.9501 122.867C43.0157 115.114 25.5289 99.4374 10.8474 77.5668C6.57333 71.1903 2.57777 64.2562 -1.21277 57.0197C-7.99065 43.81 -13.8202 29.4466 -18.481 15.1219C-25.5722 -6.29114 -30.3276 -27.5753 -30.9065 -45.4233" stroke="#F29137" stroke-miterlimit="10"/>
<path d="M621.578 335.907C593.514 351.055 563.198 363.551 531.011 367.792C511.749 370.401 491.621 369.682 473.12 364.999C461.066 361.92 449.653 357.162 439.604 350.491C408.879 330.202 392.163 295.176 361.631 276.902C350.095 269.976 338.354 265.31 324.925 262.547C313.498 260.159 301.18 259.184 288.718 258.616C271.387 257.836 252.683 257.32 236.142 254.298C227.031 252.657 218.535 250.108 210.856 246.453C195.692 239.149 185.828 228.826 176.921 217.091C164.027 200.124 152.09 179.787 133.621 162.377C131.666 160.56 129.644 158.793 127.556 157.075C104.575 138.484 79.5164 135.542 60.0497 126.652C40.9025 117.928 25.4525 101.597 12.0218 79.2528C8.07749 72.7326 4.28184 65.6505 0.691207 58.2661C-5.81671 44.7562 -11.7061 30.2362 -16.7531 15.7957C-24.4236 -5.79114 -30.4178 -26.9618 -32.637 -44.3488" stroke="#F29137" stroke-miterlimit="10"/>
<path d="M617.925 340.219C589.937 355.059 559.7 367.146 527.716 371.136C508.59 373.543 488.659 372.78 470.223 368.098C458.234 365.022 446.884 360.318 436.895 353.803C406.223 333.876 388.964 299.554 359.29 280.896C347.892 273.717 336.489 268.65 323.205 265.428C311.855 262.681 299.479 261.499 286.957 260.775C269.504 259.784 250.603 259.313 233.924 256.545C224.678 255.053 216.043 252.758 208.225 249.355C192.651 242.656 182.172 233.24 172.463 222.2C158.494 206.279 145.099 186.77 126.312 169.143C124.359 167.275 122.337 165.508 120.249 163.79C97.4085 144.895 73.8958 140.406 56.2813 130.548C38.8581 120.799 25.5713 103.921 13.2632 81.0468C9.65044 74.3315 6.1179 67.1551 2.66396 59.569C-3.5757 45.8104 -9.45657 31.0331 -14.8915 16.5282C-23.0763 -5.2303 -30.3725 -26.341 -34.2338 -43.2156" stroke="#F29137" stroke-miterlimit="10"/>
<path d="M614.34 344.477C586.426 359.062 556.267 370.739 524.423 374.425C505.367 376.679 485.635 375.819 467.393 371.144C455.468 368.121 444.248 363.421 434.19 357.008C403.507 337.39 385.768 303.824 356.885 284.832C345.624 277.452 334.498 271.879 321.356 268.3C310.081 265.247 297.65 263.753 285.004 262.871C267.427 261.67 248.397 261.194 231.448 258.726C222.131 257.387 213.36 255.293 205.336 252.245C189.352 246.15 178.195 237.588 167.745 227.297C152.635 212.471 137.784 193.738 118.809 175.899C116.856 174.031 114.836 172.212 112.75 170.443C90.1157 151.194 68.0194 145.155 52.3203 134.381C36.5563 123.604 25.4977 106.182 14.3105 82.8299C11.0275 75.971 7.76156 68.5973 4.44089 60.9126C-1.53051 46.9052 -7.46953 31.9198 -13.2906 17.299C-22.0547 -4.63318 -30.5897 -25.6303 -36.0914 -42.044" stroke="#F29137" stroke-miterlimit="10"/>
<path d="M610.754 348.744C582.979 363.025 552.769 374.288 521.128 377.722C502.208 379.827 482.608 378.868 464.497 374.198C452.701 371.179 441.478 366.582 431.483 360.222C400.79 340.913 382.569 308.156 354.481 288.726C343.358 281.093 332.572 275.067 319.509 271.079C308.311 267.668 295.888 265.917 283.117 264.875C265.417 263.465 246.257 262.984 229.103 260.819C219.652 259.63 210.742 257.789 202.643 255.047C186.248 249.557 174.413 241.848 163.223 232.306C147.039 218.527 130.731 200.622 111.503 182.568C109.484 180.698 107.466 178.827 105.445 177.06C82.951 157.507 62.4027 149.87 48.4892 138.176C34.451 126.323 25.5556 108.354 15.5542 84.5261C12.601 77.5234 9.53494 70.0018 6.41419 62.1692C0.711035 47.913 -5.28606 32.7196 -11.4284 17.9851C-20.7718 -4.1209 -30.5457 -25.0045 -37.6877 -40.9572" stroke="#F29137" stroke-miterlimit="10"/>
<path d="M607.166 353.051C579.465 367.077 549.333 377.93 517.898 381.063C499.113 382.966 479.712 381.911 461.664 377.294C449.933 374.277 438.773 369.734 428.838 363.53C398.2 344.532 379.499 312.532 352.137 292.766C341.218 284.881 330.707 278.401 317.785 274.057C306.664 270.288 294.183 268.329 281.352 267.131C263.53 265.51 244.175 265.023 226.88 263.162C217.359 262.125 208.311 260.538 200.006 258.098C183.202 253.213 170.753 246.36 158.759 237.563C141.433 224.88 123.669 207.751 104.186 189.535C102.17 187.613 100.152 185.743 98.067 183.922C75.7151 164.013 56.6482 154.827 44.6518 142.166C32.3376 129.288 25.6054 110.773 16.7267 86.415C14.1049 79.2173 11.3037 71.5498 8.31625 63.6185C2.88306 49.0621 -3.17218 33.6607 -9.70241 18.8619C-19.5601 -3.41577 -30.6377 -24.188 -39.4202 -39.6797" stroke="#FDCFA5" stroke-miterlimit="10"/>
<path d="M603.579 357.312C575.953 371.031 545.901 381.475 514.603 384.355C495.954 386.107 476.686 384.954 458.833 380.343C447.167 377.329 436.135 372.841 426.196 366.741C395.549 348.051 376.369 316.757 349.796 296.708C339.015 288.57 328.844 281.637 316.001 276.884C304.955 272.808 292.42 270.537 279.529 269.183C261.648 267.354 242.097 266.912 224.599 265.302C214.943 264.416 205.823 263.031 197.312 260.946C180.097 256.666 166.97 250.666 154.236 242.618C135.771 230.979 116.613 214.731 96.8785 196.249C94.8621 194.327 92.779 192.455 90.7608 190.584C68.549 170.371 51.0318 159.536 40.8193 146.007C30.2975 132.003 25.6619 112.99 17.9673 88.208C15.6753 80.8665 13.139 73.0533 10.2865 64.9719C5.12153 50.1667 -0.991786 34.5572 -7.84327 19.6447C-18.2803 -2.8067 -30.5967 -23.4653 -41.0195 -38.4962" stroke="#FDCFA5" stroke-miterlimit="10"/>
<path d="M599.988 361.623C572.5 375.089 542.461 385.121 511.304 387.696C492.79 389.298 473.72 388.048 455.932 383.44C444.331 380.427 433.362 375.993 423.485 369.998C392.89 351.671 373.167 321.08 347.388 300.645C336.745 292.254 326.914 284.869 314.147 279.757C303.179 275.323 290.652 272.795 277.569 271.332C259.566 269.292 239.819 268.844 222.117 267.537C212.325 266.8 203.067 265.669 194.416 263.888C176.727 260.21 162.986 255.066 149.512 247.767C129.905 237.224 109.291 221.752 89.3693 203.057C87.2879 201.133 85.2715 199.212 83.255 197.29C61.2482 176.774 45.2807 164.29 36.8521 149.892C28.056 134.812 25.582 115.304 19.01 89.9923C17.0495 82.4557 14.7131 74.4945 12.0588 66.3166C7.16214 51.2627 0.990679 35.4452 -6.24699 20.4168C-17.2633 -2.20839 -30.8186 -22.7535 -42.8818 -37.3234" stroke="#FDCFA5" stroke-miterlimit="10"/>
<path d="M596.339 365.886C568.926 379.045 538.966 388.667 508.012 390.991C489.634 392.392 470.696 391.095 453.103 386.493C441.632 383.485 430.726 379.105 420.844 373.264C390.239 355.246 370.101 325.413 345.047 304.642C334.545 295.947 325.05 288.212 312.429 282.641C301.537 277.849 288.954 275.062 275.811 273.441C257.685 271.192 237.809 270.74 219.901 269.734C210.04 269.15 200.645 268.22 191.853 266.744C173.752 263.723 159.335 259.381 145.121 252.829C124.44 243.333 102.368 228.689 82.1285 209.778C80.0488 207.802 78.0323 205.88 76.0158 203.959C54.1508 183.087 39.7313 169.006 33.1515 153.741C26.1479 137.536 25.7705 117.53 20.3194 91.7399C18.6887 84.0597 16.617 75.9526 14.0977 67.6246C9.47101 52.2705 3.24147 36.2449 -4.32086 21.2058C-15.8515 -1.591 -30.7106 -22.0247 -44.4158 -36.0821" stroke="#FFD3BD" stroke-miterlimit="10"/>
<path d="M592.753 370.151C565.413 383.055 535.533 392.216 504.718 394.287C486.41 395.536 467.672 394.091 450.207 389.544C438.8 386.539 427.958 382.212 418.073 376.474C387.522 358.767 366.906 329.64 342.577 308.584C332.277 299.637 323.058 291.448 310.514 285.519C299.697 280.42 287.057 277.373 273.857 275.545C255.607 273.085 235.535 272.678 217.488 271.926C207.492 271.491 197.959 270.815 189.027 269.643C170.516 267.227 155.421 263.738 140.465 257.987C118.642 249.586 95.1802 235.721 74.6875 216.595C72.6078 214.619 70.5281 212.644 68.5783 210.673C46.8534 189.496 34.0485 173.768 29.1894 157.582C23.9764 140.302 25.6956 119.799 21.4303 93.5327C20.1294 85.7088 18.3243 77.4045 15.9383 68.9778C11.5798 53.375 5.29215 37.1413 -2.65637 21.9863C-14.7663 -0.984224 -30.8642 -21.3043 -46.2098 -34.9009" stroke="#FFD3BD" stroke-miterlimit="10"/>
<path d="M589.164 374.46C561.965 387.06 532.097 395.861 501.421 397.627C483.249 398.726 464.709 397.184 447.31 392.589C435.969 389.585 425.19 385.312 415.366 379.679C384.805 362.281 363.71 333.86 340.172 312.469C330.011 303.269 321.067 294.625 308.664 288.34C297.925 282.883 285.293 279.579 271.967 277.644C253.594 274.974 233.391 274.562 215.14 274.112C205.072 273.882 195.402 273.407 186.265 272.538C167.344 270.726 151.636 268.093 135.875 263.088C112.911 255.783 87.993 242.694 67.3123 223.355C65.1677 221.378 63.1546 219.353 61.1398 217.38C39.6217 195.849 28.3648 178.524 25.2895 161.469C21.9339 143.065 25.6848 122.063 22.5404 95.3186C21.571 87.2996 20.0291 78.9009 17.7797 70.2727C13.6912 54.3696 7.34367 37.9794 -0.926105 22.7107C-13.6153 -0.433665 -30.952 -20.6402 -48.0029 -33.778" stroke="#FDCFA5" stroke-miterlimit="10"/>
<path d="M585.581 378.722C558.455 391.066 528.667 399.406 498.13 400.919C480.093 401.868 461.686 400.227 444.482 395.638C433.27 392.639 422.554 388.419 412.725 382.941C382.219 365.854 360.646 338.138 337.833 316.462C327.875 307.012 319.206 297.913 306.947 291.221C296.284 285.405 283.596 281.842 270.21 279.75C251.714 276.87 231.317 276.452 212.862 276.253C202.659 276.172 192.916 275.953 183.574 275.386C164.241 274.23 147.856 272.399 131.356 268.142C107.252 261.882 80.9412 249.623 59.9426 230.068C57.798 228.09 55.72 226.063 53.7719 224.041C32.3938 202.206 22.8148 183.287 21.3952 165.308C19.8952 145.832 25.7427 124.332 23.721 97.0582C23.0813 88.8956 21.8059 80.2996 19.6899 71.5727C15.8696 55.4209 9.53062 38.7733 0.872956 23.4403C-12.3306 0.124305 -30.9711 -19.9709 -49.6623 -32.6476" stroke="#FDCFA5" stroke-miterlimit="10"/>
<path d="M581.99 382.984C554.939 395.021 525.228 403.003 494.896 404.214C476.996 404.961 458.785 403.275 441.646 398.689C430.498 395.743 419.845 391.577 410.079 386.152C379.562 369.425 357.577 342.366 335.489 320.353C325.672 310.598 317.341 301.099 305.159 294.048C294.573 287.874 281.827 284.103 268.317 281.8C249.763 278.712 229.171 278.288 210.512 278.391C200.239 278.463 190.299 278.289 180.875 278.234C161.12 278.044 144.069 276.706 126.829 273.198C101.648 268.035 73.8169 256.55 52.6304 236.783C50.4874 234.754 48.4095 232.727 46.463 230.653C25.2268 208.462 17.2608 187.947 17.625 169.1C17.9806 148.552 25.8615 126.501 24.9589 98.8005C24.714 90.4963 23.6385 81.7524 21.6574 72.8754C18.1054 56.4748 11.7084 39.6192 2.66451 24.1703C-11.1183 0.680559 -30.9977 -19.3011 -51.3293 -31.5169" stroke="#FDCFA5" stroke-miterlimit="10"/>
<path d="M578.405 387.295C551.493 399.08 521.797 406.598 491.603 407.556C473.838 408.153 455.762 406.317 438.816 401.788C427.733 398.845 417.144 394.732 407.438 389.464C376.91 373.046 354.576 346.697 333.148 324.396C323.534 314.391 315.478 304.436 303.375 296.976C292.864 290.496 280.128 286.416 266.492 284.006C247.815 280.708 227.027 280.328 208.229 280.685C197.821 280.907 187.802 281.142 178.18 281.184C158.026 281.289 140.284 281.165 122.306 278.354C95.9837 274.287 66.7616 263.58 45.3221 243.599C43.1143 241.567 41.1029 239.491 39.1565 237.417C18.0603 214.922 11.7722 192.814 13.8588 172.993C16.0701 151.373 25.9826 128.823 26.2027 100.592C26.2892 92.0931 25.4136 83.2012 23.6307 74.2277C20.3487 57.5269 13.8918 40.5147 4.52665 24.9521C-9.83714 1.34007 -30.8887 -18.5773 -52.9256 -30.3344" stroke="#FDCFA5" stroke-miterlimit="10"/>
<path d="M574.753 391.557C547.916 403.035 518.297 410.196 488.244 410.849C470.613 411.296 452.671 409.362 435.855 404.837C424.901 401.898 414.375 397.839 404.666 392.674C374.192 376.566 351.38 350.923 330.677 328.337C321.268 318.029 313.486 307.672 301.524 299.855C291.09 293.017 278.298 288.677 264.602 286.111C245.802 282.603 224.883 282.219 205.88 282.878C195.402 283.252 185.181 283.738 175.419 284.084C154.852 284.846 136.434 285.524 117.716 283.461C90.2542 280.439 59.6378 270.614 37.8822 250.364C35.6744 248.332 33.5998 246.203 31.6551 244.077C10.7639 221.279 6.08872 197.576 9.83106 176.831C13.9629 154.141 25.9087 131.039 27.2497 102.331C27.666 93.6881 27.0553 84.6504 25.4074 75.5268C22.3936 58.5772 15.8803 41.3055 6.12729 25.6785C-8.75085 1.89488 -31.1062 -17.9111 -54.7835 -29.2072" stroke="#FDCFA5" stroke-miterlimit="10"/>
<path d="M571.164 395.866C544.401 407.088 514.862 413.787 485.012 414.19C467.453 414.433 449.773 412.456 433.021 407.933C422.133 404.996 411.67 400.991 401.957 395.929C371.473 380.13 348.313 355.196 328.271 332.272C319.065 321.713 311.558 310.901 299.675 302.675C289.317 295.479 276.469 290.88 262.712 288.208C243.787 284.541 222.675 284.099 203.532 285.063C192.919 285.587 182.624 286.328 172.657 286.977C151.68 288.343 132.648 289.877 113.126 288.561C84.5879 286.636 52.4508 277.585 30.5072 257.123C28.3011 255.04 26.2265 252.91 24.2818 250.785C3.53242 227.631 0.533442 202.386 5.99643 180.719C11.9821 157.008 25.9614 133.356 28.4232 104.169C29.171 95.3308 28.8235 86.1988 27.3106 76.9251C24.565 59.7267 17.9936 42.247 7.91934 26.5063C-7.53807 2.54887 -31.1323 -17.1436 -56.4499 -27.9787" stroke="#FDCFA5" stroke-miterlimit="10"/>
<path d="M567.581 400.134C540.956 411.103 511.432 417.339 481.721 417.489C464.297 417.581 446.749 415.506 430.193 410.99C419.369 408.055 409.035 404.106 399.317 399.198C368.886 383.762 345.249 359.482 325.931 336.272C316.931 325.411 309.697 314.196 297.89 305.612C287.61 298.057 274.768 293.252 260.823 290.368C241.775 286.491 220.532 286.096 201.121 287.309C190.373 287.983 180.004 288.979 169.897 289.933C148.509 291.955 128.798 294.343 108.538 293.723C78.8565 292.946 45.3302 284.622 23.1338 263.945C20.8627 261.86 18.853 259.732 16.9117 257.504C-3.69755 234.046 -5.01869 207.207 2.10001 184.616C9.94134 159.833 25.954 135.629 29.6017 105.967C30.6793 96.9851 30.5983 87.6557 29.2186 78.2834C26.743 60.7848 20.1117 43.1485 9.65131 27.292C-6.38538 3.1608 -31.2184 -16.4181 -58.1764 -26.7923" stroke="#FDCFA5" stroke-miterlimit="10"/>
<path d="M563.996 404.393C537.447 415.056 508 420.934 478.429 420.779C461.139 420.721 443.792 418.498 427.299 414.035C416.605 411.105 406.269 407.207 396.612 402.404C366.171 387.277 342.186 363.707 323.528 340.21C314.665 329.096 307.771 317.428 296.109 308.436C285.905 300.524 273.007 295.459 259.002 292.419C239.831 288.331 218.393 287.93 198.842 289.447C188.024 290.274 177.452 291.521 167.204 292.779C145.404 295.458 125.018 298.647 104.017 298.776C73.1946 299.094 38.2125 291.546 15.7631 270.655C13.492 268.57 11.4191 266.389 9.54272 264.162C-10.9247 240.348 -10.6346 211.966 -1.72863 188.403C8.03156 162.602 26.0775 137.847 30.7829 107.653C32.1902 98.5275 32.3092 89.0502 31.1294 79.5299C28.9221 61.7825 22.2345 43.8868 11.4494 28.0195C-5.10167 3.71664 -31.2385 -15.7509 -59.8368 -25.6641" stroke="#FDCFA5" stroke-miterlimit="10"/>
<path d="M560.404 408.705C533.993 419.115 504.561 424.53 475.193 424.124C458.039 423.917 440.825 421.594 424.526 417.138C413.898 414.21 403.624 410.366 394.029 405.668C363.643 390.852 339.244 367.989 321.248 344.154C312.655 332.739 305.97 320.666 294.384 311.317C284.255 303.097 271.367 297.724 257.236 294.576C238.007 290.281 216.374 289.873 196.618 291.692C185.665 292.669 175.019 294.171 164.569 295.68C142.357 299.015 121.358 303.009 99.553 303.884C67.6559 305.249 31.2163 298.529 8.51401 277.423C6.24464 275.287 4.17168 273.105 2.23208 270.825C-18.0304 246.709 -16.1272 216.731 -5.50062 192.246C6.11519 165.372 26.2578 140.121 32.0191 109.446C33.8229 100.128 34.1417 90.5024 33.0969 80.832C31.1579 62.8359 24.4121 44.732 13.2408 28.7489C-3.88947 4.2723 -31.2651 -15.0817 -61.5056 -24.4825" stroke="#FDCFA5" stroke-miterlimit="10"/>
<path d="M556.818 412.965C530.481 423.068 501.127 428.124 471.899 427.414C454.881 427.005 437.799 424.635 421.63 420.184C411.067 417.257 400.92 413.52 391.321 408.925C360.925 394.418 336.179 372.214 318.84 348.143C310.451 336.477 304.041 323.95 292.596 314.244C282.545 305.666 269.599 300.085 255.409 296.729C236.057 292.224 214.228 291.861 194.333 293.933C183.31 295.062 172.528 296.766 161.871 298.629C139.249 302.569 117.572 307.416 95.0253 309.091C61.9867 311.552 24.1563 305.61 1.20109 284.29C-1.06829 282.153 -3.2044 279.918 -5.07906 277.641C-25.1997 253.168 -21.6222 221.699 -9.3382 196.239C4.13153 168.345 26.3092 142.491 33.2564 111.34C35.3899 101.878 35.9736 92.1068 35.0638 82.2863C33.3947 63.9899 26.5891 45.7296 15.0966 29.6327C-2.61301 4.98236 -31.2275 -14.258 -63.1083 -23.1979" stroke="#FDCFA5" stroke-miterlimit="10"/>
<path d="M553.165 417.276C526.902 427.124 497.628 431.719 468.538 430.756C451.656 430.196 434.771 427.731 418.668 423.281C408.167 420.408 398.085 416.674 388.549 412.184C358.207 397.988 333.112 376.493 316.37 352.081C308.186 340.113 302.047 327.234 290.683 317.067C280.708 308.131 267.706 302.29 253.392 298.776C233.917 294.06 211.958 293.693 191.794 296.014C180.636 297.293 169.781 299.253 158.983 301.42C136.013 306.069 113.596 311.665 90.3097 314.088C56.1316 317.594 16.8436 312.479 -6.36455 290.945C-8.69886 288.806 -10.7683 286.522 -12.643 284.244C-32.6235 259.467 -27.3682 226.405 -13.3635 200.023C2.0234 171.161 26.2362 144.705 34.241 113.022C36.7044 103.417 37.4896 93.4461 36.778 83.5291C35.3772 64.984 28.5135 46.5156 16.6348 30.3029C-1.58916 5.48087 -31.5073 -13.6481 -65.0285 -22.1271" stroke="#FDCFA5" stroke-miterlimit="10"/>
<path d="M549.577 421.538C508.255 436.607 459.248 438.384 415.835 426.331C372.422 414.278 335.184 388.466 314.092 356.026C306.113 343.755 300.248 330.473 288.961 319.948C265.633 298.1 224.891 293.71 189.573 298.26C154.32 302.812 121.166 314.647 85.8468 319.249C50.5922 323.852 9.8484 319.514 -13.6126 297.765C-40.9186 272.384 -34.3103 233.802 -17.1344 203.918C0.108064 173.984 26.3525 147.028 35.5432 114.87C43.5586 86.7946 37.3587 56.136 18.5554 31.1402C-0.247796 6.14441 -31.4048 -12.871 -66.5664 -20.889" stroke="#FF7E07" stroke-miterlimit="10"/>
<path d="M538.67 423.133C497.623 437.747 449.215 439.132 406.457 426.895C363.7 414.657 326.911 389.066 306.463 356.802C298.494 344.222 293.102 330.389 282.216 319.516C260.131 297.452 220.771 292.541 186.591 296.098C152.476 299.657 120.013 310.279 85.1066 314.173C49.7426 318.154 8.78528 314.375 -15.3438 293.171C-43.2581 268.492 -38.2816 230.113 -21.6816 199.952C-5.08164 169.791 21.8172 142.702 31.8897 111.397C40.5869 84.324 34.9971 54.8707 17.5968 30.6943C0.196556 6.51793 -29.1492 -12.2314 -63.0036 -20.4637" stroke="#FF7E07" stroke-miterlimit="10"/>
<path d="M527.699 424.676C486.994 438.786 439.117 439.828 396.949 427.456C354.781 415.084 318.508 389.612 298.769 357.526C290.812 344.587 285.955 330.307 275.471 319.087C254.691 296.86 216.65 291.375 183.673 293.941C150.633 296.453 118.858 305.913 84.3637 309.15C48.892 312.458 7.65281 309.34 -17.1427 288.629C-45.7318 264.7 -42.254 226.427 -26.3631 196.087C-10.4723 165.748 17.0828 138.475 28.1003 108.077C37.5426 82.0591 32.5014 53.7061 16.504 30.3491C0.441773 6.99002 -27.0277 -11.4911 -59.5749 -19.9377" stroke="#FF7E07" stroke-miterlimit="10"/>
<path d="M516.794 426.271C476.366 439.875 429.087 440.525 387.507 428.069C345.927 415.613 310.236 390.212 291.142 358.302C283.197 345.002 278.874 330.277 268.728 318.656C249.189 296.264 212.596 290.259 180.693 291.779C148.791 293.299 117.704 301.596 83.5586 304.123C48.0442 306.76 6.45814 304.3 -18.9388 284.084C-48.2012 260.855 -46.2236 222.738 -31.0418 192.221C-15.8601 161.703 12.4142 134.299 24.3801 104.706C34.436 79.7902 30.1382 52.5439 15.4806 29.9527C0.821284 7.413 -24.8387 -10.7505 -56.077 -19.463" stroke="#FF7E07" stroke-miterlimit="10"/>
<path d="M505.816 427.868C465.728 441.02 418.917 441.273 377.993 428.632C337.069 415.992 301.895 390.712 283.443 359.029C275.51 345.369 271.72 330.248 261.915 318.175C243.614 295.669 208.406 289.041 177.644 289.517C146.881 289.992 116.483 297.126 82.6842 298.996C46.9954 301.008 5.26069 299.11 -20.8693 279.437C-50.8048 256.907 -50.3291 218.997 -35.8549 188.251C-21.3157 157.506 7.54478 130.07 20.4591 101.281C31.1951 77.4184 27.5109 51.2745 14.2562 29.5027C1.00153 7.73088 -22.8488 -10.115 -52.7782 -19.0933" stroke="#FFA14A" stroke-miterlimit="10"/>
<path d="M494.912 429.414C455.101 442.06 408.886 441.972 368.616 429.198C328.347 416.425 293.688 391.265 275.879 359.81C267.958 345.789 264.638 330.221 255.234 317.8C238.172 295.181 204.351 287.928 174.726 287.411C145.101 286.893 115.33 292.761 81.9413 294.025C46.1448 295.364 4.19485 294.078 -22.6032 274.949C-53.147 253.12 -54.3015 215.363 -40.4065 184.442C-26.5764 153.519 2.93852 125.95 16.8662 97.9679C28.2174 75.1561 25.2099 50.1683 13.3582 29.2159C1.50644 8.26346 -20.5326 -9.31633 -49.0899 -18.5068" stroke="#FFA14A" stroke-miterlimit="10"/>
<path d="M483.933 431.006C444.464 443.148 398.78 442.717 359.102 429.757C319.424 416.797 285.411 391.761 268.18 360.531C260.27 346.15 257.484 330.187 248.485 317.316C232.595 294.633 200.289 286.761 171.739 285.197C143.254 283.635 114.171 288.34 81.1293 288.946C45.2268 289.56 3.05823 288.988 -24.4711 270.35C-55.6881 249.22 -58.3429 211.619 -45.1553 180.469C-31.9678 149.319 -1.93165 121.716 13.0094 94.54C24.9092 72.8285 22.7116 48.8981 12.1979 28.7629C1.6842 8.62777 -18.4803 -8.63231 -45.7288 -18.0886" stroke="#FFA14A" stroke-miterlimit="10"/>
<path d="M473.031 432.606C433.838 444.241 388.751 443.469 349.662 430.374C310.574 417.279 277.208 392.317 260.554 361.312C252.657 346.571 250.339 330.211 241.743 316.941C227.024 294.245 196.172 285.648 168.825 283.093C141.413 280.536 113.022 283.976 80.3917 283.926C44.3815 283.866 1.93273 283.903 -26.1998 265.812C-58.025 245.384 -62.2467 207.989 -49.7665 176.609C-37.2864 145.229 -6.66596 117.645 9.29181 91.1731C21.7402 70.5619 20.2861 47.7381 11.177 28.3709C2.06625 9.05514 -16.222 -7.93666 -42.2282 -17.6094" stroke="#FFA14A" stroke-miterlimit="10"/>
<path d="M462.055 434.145C423.202 445.328 378.648 444.161 340.214 430.934C301.78 417.706 268.997 392.814 252.921 362.034C245.036 346.933 243.249 330.23 234.995 316.456C221.381 293.745 192.048 284.426 165.839 280.878C139.567 277.277 111.753 280.942 79.5809 278.845C43.5158 276.517 0.798941 278.761 -28.0666 261.212C-60.5001 241.485 -66.287 204.244 -54.4511 172.689C-42.6152 141.133 -11.5367 113.461 5.56424 87.7998C18.563 68.2373 17.8522 46.5203 10.1444 28.024C2.43828 9.47615 -14.0421 -7.14662 -38.7394 -17.0852" stroke="#FFA14A" stroke-miterlimit="10"/>
<path d="M451.147 435.743C412.571 446.42 368.548 444.91 330.77 431.498C292.925 418.136 260.79 393.317 245.29 362.814C237.416 347.352 236.098 330.252 228.247 316.08C215.739 293.354 187.988 283.365 162.855 278.72C137.721 274.126 110.466 276.624 78.7723 273.822C42.6046 270.666 -0.33264 273.675 -29.8662 256.671C-62.973 237.643 -70.2601 200.559 -59.1333 168.825C-48.0066 137.092 -16.407 109.385 1.77397 84.4811C15.2564 66.0167 15.4189 45.4108 9.0508 27.6802C2.68269 9.94958 -11.9215 -6.40492 -35.3116 -16.5579" stroke="#FFA14A" stroke-miterlimit="10"/>
<path d="M440.179 437.335C401.88 447.506 358.454 445.655 321.265 432.108C284.077 418.561 252.588 393.867 237.6 363.587C229.803 347.767 228.886 330.32 221.506 315.647C210.102 292.958 183.872 282.196 159.877 276.557C135.883 270.919 109.37 270.659 77.9696 268.794C41.5099 266.608 -1.45992 268.637 -31.7248 252.124C-65.4398 233.797 -74.3571 196.865 -63.8746 164.955C-53.392 133.046 -21.4011 105.301 -2.00859 81.1066C11.8925 63.7382 12.93 44.1918 7.96481 27.2806C2.99965 10.3694 -9.79325 -5.71901 -31.8762 -16.0863" stroke="#FFA14A" stroke-miterlimit="10"/>
<path d="M429.266 438.883C391.309 448.549 348.416 446.304 311.815 432.673C275.214 419.043 244.374 394.37 229.964 364.315C222.179 348.135 221.664 330.34 214.756 315.168C204.392 292.462 179.811 280.981 156.89 274.348C134.033 267.716 108.212 266.191 77.2217 263.722C40.6559 260.81 -2.53085 263.502 -33.4655 247.586C-67.7871 229.908 -78.2729 193.233 -68.4978 161.094C-58.7227 128.955 -26.2774 101.225 -5.73992 77.7904C8.58163 61.4665 10.4907 43.0826 6.92844 26.9908C3.36622 10.899 -7.61708 -4.8718 -28.3911 -15.5049" stroke="#FFA14A" stroke-miterlimit="10"/>
<path d="M418.291 440.48C380.608 449.692 338.313 447.054 302.369 433.239C266.424 419.424 236.232 394.824 222.332 365.044C214.625 348.506 214.511 330.364 208.008 314.741C198.616 292.118 175.686 279.868 153.969 272.192C132.252 264.517 107.058 261.724 76.4776 258.65C39.7427 254.96 -3.5979 258.368 -35.2007 242.996C-70.1305 226.02 -82.1816 189.499 -73.049 157.133C-63.9164 124.766 -31.2112 97.0454 -9.33233 74.3247C5.27807 59.0925 8.25682 41.7746 6.03261 26.5C3.8084 11.2255 -5.29868 -4.27708 -24.7656 -15.1245" stroke="#FFA14A" stroke-miterlimit="10"/>
<path d="M407.388 442.022C370.048 450.73 328.284 447.749 292.929 433.799C257.574 419.849 228.094 395.324 214.772 365.769C207.078 348.819 207.364 330.382 201.333 314.26C192.915 291.669 171.635 278.649 151.056 269.98C130.412 261.31 105.912 257.2 75.7402 253.573C38.8992 249.158 -4.59332 253.231 -36.994 238.399C-72.5321 222.124 -86.1484 185.758 -77.725 153.213C-69.3015 120.669 -36.27 92.9071 -13.1163 70.9501C1.8496 56.7602 5.76486 40.6069 4.9453 26.1003C4.12574 11.5937 -3.17175 -3.59131 -21.3315 -14.6531" stroke="#FFA14A" stroke-miterlimit="10"/>
<path d="M396.415 443.617C359.352 451.819 318.119 448.495 283.419 434.412C248.718 420.329 219.888 395.825 207.075 366.597C199.458 349.288 200.015 330.499 194.584 313.933C187.14 291.375 167.576 277.587 148.072 267.872C128.567 258.157 104.694 252.78 74.9305 248.599C37.9202 243.406 -5.72608 248.195 -38.7949 233.908C-74.9395 218.283 -90.1893 182.172 -82.4084 149.4C-74.6274 116.628 -41.3994 88.821 -16.906 67.6297C-1.71451 54.4779 3.26876 39.4421 3.85044 25.8063C4.43382 12.1191 -1.05408 -2.74829 -17.9032 -14.1274" stroke="#FFA14A" stroke-miterlimit="10"/>
<path d="M385.504 445.214C348.78 452.964 308.081 449.245 273.972 434.976C239.862 420.706 211.808 396.332 199.443 367.324C191.903 349.657 192.795 330.57 187.837 313.453C181.301 290.976 163.452 276.421 145.087 265.661C126.722 254.902 103.476 248.258 74.1209 243.524C36.9415 237.552 -6.85682 243.006 -40.6603 229.313C-77.4132 214.389 -94.2283 178.432 -87.0915 145.484C-80.0197 112.534 -46.5935 84.6308 -20.6323 64.261C-5.14847 52.0979 0.834537 38.2803 2.82086 25.4125C4.80719 12.5447 1.13059 -2.05659 -14.4113 -13.65" stroke="#FFA14A" stroke-miterlimit="10"/>
<path d="M374.532 446.756C338.085 453.999 297.982 449.94 264.527 435.537C231.072 421.135 203.667 396.781 191.813 368.048C184.351 349.972 185.513 330.584 181.091 312.97C175.464 290.523 159.331 275.2 142.104 263.448C124.877 251.696 102.262 243.681 73.3132 238.445C36.0312 231.645 -7.98754 237.865 -42.4591 224.717C-79.8186 210.443 -98.2005 174.692 -91.7729 141.566C-85.3437 108.388 -51.7842 80.3862 -24.42 60.8358C-8.77376 49.6571 -1.59622 37.0643 1.72983 24.9623C5.05417 12.9117 3.25207 -1.36984 -10.9161 -13.2269" stroke="#FFA14A" stroke-miterlimit="10"/>
<path d="M363.622 448.352C327.517 455.092 287.945 450.689 255.08 436.152C222.214 421.614 195.587 397.338 184.18 368.826C176.796 350.392 178.23 330.652 174.342 312.592C169.625 290.175 155.272 274.087 139.183 261.341C123.096 248.545 101.172 239.265 72.5669 233.474C35.1806 225.897 -9.05676 232.831 -44.2614 220.226C-82.2291 206.653 -102.178 171.107 -96.4561 137.7C-90.7343 104.293 -57.0398 76.1413 -28.1462 57.5176C-12.2726 47.3255 -4.02872 35.9016 0.698567 24.6704C5.42585 13.4392 5.43505 -0.576207 -7.42589 -12.6476" stroke="#FFA14A" stroke-miterlimit="10"/>
<path d="M352.716 449.953C316.888 456.186 277.913 451.443 245.638 436.718C213.364 421.994 187.449 397.794 176.552 369.607C169.246 350.764 170.883 330.773 167.664 312.168C163.789 289.831 151.216 272.977 136.267 259.187C121.318 245.398 100.024 234.747 71.8276 228.403C34.2738 219.997 -10.119 227.698 -45.9917 215.637C-84.566 202.714 -106.147 167.372 -101.069 133.789C-95.9913 100.207 -62.2884 71.7972 -31.8671 54.1516C-15.8944 44.8902 -6.45771 34.7425 -0.325778 24.2793C5.74122 13.8139 7.62503 0.118182 -3.92874 -12.1676" stroke="#FFA14A" stroke-miterlimit="10"/>
<path d="M341.742 451.494C306.189 457.273 267.813 452.086 236.127 437.278C204.505 422.473 179.306 398.244 168.855 370.33C161.626 351.128 163.47 330.784 160.851 311.735C157.819 289.426 147.092 271.808 133.218 256.972C119.343 242.136 98.7436 230.169 70.9537 223.323C33.2972 214.089 -11.2492 222.507 -47.9216 211.038C-87.1024 198.764 -110.25 163.628 -105.817 129.869C-101.448 96.1084 -67.7349 67.3902 -35.721 50.7248C-19.5825 42.345 -8.95295 33.4735 -1.483 23.8275C5.98694 14.1814 9.68025 0.803356 -0.564628 -11.7482" stroke="#FFA14A" stroke-miterlimit="10"/>
<path d="M330.835 453.092C295.559 458.364 257.714 452.834 226.682 437.893C195.652 422.901 171.231 398.75 161.226 371.108C154.14 351.499 156.059 330.848 154.106 311.306C151.854 289.022 142.972 270.642 130.236 254.813C117.499 238.984 97.5946 225.649 70.2113 218.3C32.4541 208.187 -12.3145 217.422 -49.6549 206.498C-89.4423 194.874 -114.157 159.944 -110.433 126.007C-106.708 92.0699 -73.0463 62.9377 -39.38 47.4092C-23.0756 39.9108 -11.32 32.3648 -2.4471 23.5382C6.42579 14.7116 11.9304 1.5996 2.9927 -11.1663" stroke="#FFA14A" stroke-miterlimit="10"/>
<path d="M319.862 454.686C284.927 459.455 247.614 453.581 217.238 438.456C186.862 423.332 163.153 399.255 153.596 371.835C146.587 351.867 148.713 330.863 147.359 310.876C145.887 288.619 138.849 269.526 127.252 252.653C115.655 235.78 96.4458 221.076 69.4025 213.276C31.5426 202.334 -13.4446 212.283 -51.5198 201.953C-91.9137 190.979 -118.197 156.306 -115.18 122.14C-112.163 87.9733 -78.5509 58.3758 -43.2338 44.0355C-26.7619 37.3672 -13.8801 31.1467 -3.60423 23.1395C6.60667 15.1301 13.9875 2.28637 6.35698 -10.6939" stroke="#FFA14A" stroke-miterlimit="10"/>
<path d="M308.952 456.23C274.359 460.495 237.578 454.278 207.791 439.018C178.005 423.758 155.14 399.71 145.962 372.611C139.097 352.236 141.233 330.923 140.676 310.447C139.982 288.216 134.789 268.36 124.331 250.494C113.872 232.628 95.293 216.554 68.6564 208.251C30.7605 196.433 -14.5137 207.197 -53.257 197.411C-94.2575 187.087 -122.107 152.62 -119.735 118.277C-117.361 83.8835 -83.7961 53.7691 -46.8316 40.7202C-30.1906 34.8303 -16.1211 30.0405 -4.50554 22.799C7.11001 15.5576 16.3637 3.08502 9.97717 -10.1632" stroke="#FFA14A" stroke-miterlimit="10"/>
<path d="M297.983 457.825C263.665 461.635 227.482 455.026 198.35 439.633C169.218 424.24 147.067 400.215 138.335 373.389C131.611 352.658 133.824 330.986 133.934 310.018C134.021 287.76 130.737 267.195 121.416 248.336C112.097 229.425 94.2135 211.983 67.9186 203.177C29.9219 190.479 -15.5078 202.011 -54.9857 192.819C-96.5928 183.145 -126.075 148.881 -124.345 114.311C-122.614 79.7416 -89.0927 48.9558 -50.5476 37.2475C-33.7373 32.1362 -18.5434 28.7233 -5.52657 22.3527C7.49193 15.9306 18.5569 3.72423 13.4775 -9.73835" stroke="#FFA14A" stroke-miterlimit="10"/>
<path d="M287.074 459.423C253.097 462.729 217.445 455.777 188.904 440.197C160.362 424.669 138.989 400.722 130.705 374.117C124.124 352.978 126.348 330.998 127.187 309.59C128.053 287.358 126.613 266.081 118.433 246.126C110.252 226.223 93.064 207.412 67.1108 198.102C29.0799 184.475 -16.6369 196.822 -56.8495 188.225C-99.0632 179.2 -130.114 145.193 -129.091 110.394C-128.068 75.5948 -94.5911 44.1893 -54.4037 33.9266C-37.4242 29.5938 -21.1074 27.6093 -6.686 22.0067C7.73545 16.404 20.61 4.51519 16.8412 -9.26467" stroke="#FFA14A" stroke-miterlimit="10"/>
<path d="M276.1 460.969C242.4 463.769 207.28 456.474 179.393 440.761C151.507 425.049 130.911 401.179 123.008 374.844C116.57 353.349 118.807 330.957 120.375 309.11C121.958 286.85 122.491 264.865 115.384 243.915C108.278 222.966 91.8501 202.789 66.2369 193.026C28.17 178.523 -17.832 191.633 -58.7144 183.631C-101.533 175.205 -134.152 141.456 -133.838 106.478C-133.525 71.5011 -99.9538 39.2226 -58.1909 30.4549C-40.9755 26.8513 -23.536 26.2954 -7.77659 21.51C7.98286 16.7246 22.7337 5.10399 20.272 -8.89022" stroke="#FFA14A" stroke-miterlimit="10"/>
<path d="M265.194 462.559C231.834 464.907 197.248 457.165 169.95 441.369C142.653 425.522 122.902 401.68 115.378 375.667C109.083 353.765 111.33 331.064 113.693 308.778C116.056 286.493 118.433 263.797 112.465 241.854C106.496 219.911 90.8305 198.317 65.4924 188.1C27.3912 172.667 -18.8995 186.644 -60.515 179.185C-103.942 171.46 -138.126 137.865 -138.457 102.712C-138.787 67.5585 -105.187 34.4051 -61.9171 27.2331C-44.3992 24.3095 -25.9703 25.2806 -8.80786 21.3146C8.35454 17.3486 24.9166 5.99412 23.7621 -8.21443" stroke="#FFA14A" stroke-miterlimit="10"/>
</g>
<defs>
<clipPath id="clip0_125_2">
<rect width="481" height="300" fill="white"/>
</clipPath>
</defs>
</svg>
